<svg width="83" height="65" viewBox="0 0 83 65" fill="none" xmlns="http://www.w3.org/2000/svg">
<g id="Vector 1">
<path d="M35.9162 0.908082L30.1008 63.9081C30.0467 64.4942 30.508 65 31.0966 65H51.9034C52.492 65 52.9533 64.4942 52.8992 63.9081L47.0838 0.908083C47.0363 0.393599 46.6047 0 46.0881 0H36.9119C36.3953 0 35.9637 0.393598 35.9162 0.908082Z" fill="#0078BF"/>
<path d="M48.6975 1.16686L59.359 64.1669C59.4404 64.6479 59.8571 65 60.345 65H81.5596C82.2571 65 82.7403 64.3039 82.4965 63.6504L58.9927 0.650457C58.8467 0.259328 58.4732 0 58.0557 0H49.6834C49.0645 0 48.5942 0.556586 48.6975 1.16686Z" fill="#0078BF"/>
<path d="M1.42489 65H22.655C23.1429 65 23.5596 64.6479 23.641 64.1669L34.3025 1.16686C34.4058 0.556586 33.9355 0 33.3166 0H24.2018C23.7806 0 23.4046 0.263909 23.2614 0.660003L0.484462 63.66C0.248781 64.3119 0.731708 65 1.42489 65Z" fill="#0078BF"/>
</g>
</svg>
