<svg width="24" height="28" viewBox="0 0 24 28" fill="none" xmlns="http://www.w3.org/2000/svg">
<path id="Arrow 1" d="M13.5 2C13.5 1.17157 12.8284 0.5 12 0.5C11.1716 0.5 10.5 1.17157 10.5 2L13.5 2ZM10.9393 27.0607C11.5251 27.6464 12.4749 27.6464 13.0607 27.0607L22.6066 17.5147C23.1924 16.9289 23.1924 15.9792 22.6066 15.3934C22.0208 14.8076 21.0711 14.8076 20.4853 15.3934L12 23.8787L3.51472 15.3934C2.92893 14.8076 1.97918 14.8076 1.3934 15.3934C0.807611 15.9792 0.807611 16.9289 1.3934 17.5147L10.9393 27.0607ZM10.5 2L10.5 26L13.5 26L13.5 2L10.5 2Z" fill="white"/>
</svg>
