<svg xmlns="http://www.w3.org/2000/svg" width="47" height="48" viewBox="0 0 47 48" fill="none">
  <mask id="mask0_168_521" style="mask-type:luminance" maskUnits="userSpaceOnUse" x="0" y="0" width="47" height="48">
    <path d="M47 0.580017H0V47.58H47V0.580017Z" fill="white"/>
  </mask>
  <g mask="url(#mask0_168_521)">
    <path d="M1.09859 47.58C0.997 47.52 0.895411 47.4588 0.792599 47.3989C0.045984 46.9619 -0.140058 46.0256 0.400932 45.3487C0.580854 45.1235 0.798719 44.9265 1.00312 44.7221C3.85249 41.8715 6.70554 39.0233 9.54757 36.1654C9.80338 35.9083 10.0531 35.7908 10.4227 35.7908C19.1703 35.8006 27.918 35.8006 36.6656 35.7908C37.0328 35.7908 37.2861 35.9034 37.542 36.1617C40.4048 39.0417 43.2823 41.9082 46.1464 44.7882C46.4634 45.1064 46.7167 45.487 46.9995 45.8395C46.9995 46.0843 46.9995 46.3279 46.9995 46.5727C46.7816 47.0268 46.4463 47.3621 45.9922 47.5812C31.0268 47.58 16.0627 47.58 1.09859 47.58Z" fill="#0078BF"/>
    <path d="M46.9984 41.7148C46.0976 40.825 45.193 39.9388 44.2971 39.0453C42.8688 37.6231 41.4477 36.1935 40.0182 34.7725C39.9104 34.666 39.7697 34.5926 39.5273 34.4224C39.7648 34.2609 39.9092 34.1911 40.0157 34.0846C42.2323 31.8742 44.4452 29.6588 46.6594 27.4459C46.7658 27.3394 46.8846 27.2451 46.9984 27.1448C46.9984 32.0014 46.9984 36.8581 46.9984 41.7148Z" fill="#0078BF"/>
    <path d="M46.9992 23.0213C46.6944 23.3934 46.4154 23.7887 46.0812 24.1314C44.8989 25.3395 43.697 26.5291 42.4375 27.7923C42.4375 24.3383 42.4375 20.9724 42.4375 17.5453C42.577 17.6726 42.6884 17.7656 42.7912 17.8672C43.9026 18.9773 45.0213 20.0801 46.1192 21.2049C46.4435 21.5366 46.7079 21.9258 46.9992 22.2894C46.9992 22.5329 46.9992 22.7777 46.9992 23.0213Z" fill="#0078BF"/>
    <path d="M23.5919 8.0168C28.3556 8.0168 33.118 8.0168 37.8816 8.0168C39.1619 8.0168 39.6454 8.50393 39.6454 9.79399C39.6454 16.5588 39.6429 23.3224 39.6515 30.0872C39.6515 30.4348 39.5621 30.6857 39.3063 30.9281C38.6637 31.5364 38.0591 32.1863 37.4153 32.7934C37.2684 32.9329 37.0236 33.0406 36.8229 33.0406C27.9688 33.0529 19.1135 33.0529 10.2593 33.0406C10.0598 33.0406 9.81626 32.928 9.66938 32.7885C8.99376 32.1484 8.33404 31.4886 7.69514 30.813C7.55683 30.6661 7.45279 30.4201 7.45157 30.2206C7.43933 23.3493 7.44056 16.478 7.443 9.60794C7.443 8.55534 7.99623 8.02047 9.07454 8.02047C13.9129 8.01557 18.7524 8.0168 23.5919 8.0168ZM23.5638 21.2772C21.1367 21.2772 18.7096 21.2735 16.2824 21.2796C15.3853 21.2821 14.8137 21.8451 14.8296 22.6859C14.8455 23.506 15.4269 24.025 16.3559 24.0262C19.8662 24.0298 23.3777 24.0274 26.888 24.0274C28.1854 24.0274 29.4828 24.0274 30.7802 24.0274C31.3959 24.0274 31.8867 23.8022 32.1462 23.2147C32.5648 22.2686 31.9112 21.287 30.8451 21.2821C28.418 21.2698 25.9909 21.2784 23.5638 21.2772ZM23.5454 29.9061C25.1023 29.9061 26.6592 29.9061 28.216 29.9061C29.1316 29.9061 30.0483 29.9159 30.9638 29.8975C31.5354 29.8853 31.9528 29.5964 32.1609 29.0591C32.364 28.5328 32.2857 28.0322 31.9112 27.6038C31.5831 27.2293 31.1364 27.1558 30.6615 27.1558C25.915 27.1583 21.1673 27.1571 16.4207 27.1595C16.2249 27.1595 16.023 27.1779 15.8333 27.2244C15.2249 27.3737 14.848 27.8572 14.8308 28.4814C14.8076 29.3247 15.3718 29.9 16.2653 29.9024C18.6912 29.911 21.1183 29.9048 23.5454 29.9061ZM21.3545 15.396C21.3545 15.3948 21.3545 15.3948 21.3545 15.3936C19.7205 15.3936 18.0878 15.3911 16.4538 15.396C16.2261 15.3973 15.9899 15.3985 15.7733 15.4572C15.1331 15.631 14.7611 16.2418 14.8369 16.948C14.9092 17.62 15.4306 18.0985 16.187 18.1328C16.8112 18.161 17.4391 18.1414 18.0645 18.1414C20.7976 18.1414 23.5295 18.1414 26.2626 18.1414C26.8623 18.1414 27.3837 17.9884 27.6848 17.4131C28.1756 16.4744 27.56 15.4156 26.4817 15.4009C24.7743 15.3789 23.0644 15.396 21.3545 15.396Z" fill="#0078BF"/>
    <path d="M7.28638 34.4788C4.92903 36.8385 2.53742 39.2314 0.125 41.6475C0.125 36.8373 0.125 32.0345 0.125 27.3186C2.48846 29.6821 4.89598 32.0884 7.28638 34.4788Z" fill="#0078BF"/>
    <path d="M18.4062 5.23105C19.2141 4.42324 19.9558 3.68152 20.6975 2.9398C21.3021 2.33516 21.9006 1.7244 22.5126 1.12833C23.143 0.512683 23.9275 0.490652 24.5481 1.10141C25.8871 2.41839 27.2077 3.75373 28.5345 5.08295C28.5639 5.11232 28.581 5.15516 28.6287 5.23227C25.2347 5.23105 21.8737 5.23105 18.4062 5.23105Z" fill="#0078BF"/>
    <path d="M4.66402 17.5024C4.66402 20.9736 4.66402 24.3334 4.66402 27.7653C4.5147 27.6295 4.41434 27.5438 4.32132 27.4508C3.10103 26.2317 1.88074 25.0127 0.662907 23.7911C-0.111859 23.0152 -0.105739 22.2771 0.677595 21.4925C1.97988 20.1866 3.28462 18.8818 4.66402 17.5024Z" fill="#0078BF"/>
  </g>
</svg>