<svg xmlns="http://www.w3.org/2000/svg" width="51" height="52" viewBox="0 0 51 52" fill="none">
  <mask id="mask0_168_493" style="mask-type:luminance" maskUnits="userSpaceOnUse" x="0" y="0" width="51" height="52">
    <path d="M51 0.390015H0V51.39H51V0.390015Z" fill="white"/>
  </mask>
  <g mask="url(#mask0_168_493)">
    <path d="M13.6211 51.3901C13.6211 38.409 13.6211 25.4279 13.6211 12.4468C13.6211 11.0722 14.1391 10.5502 15.503 10.5502C16.1166 10.5502 16.7302 10.529 17.3412 10.5635C17.5138 10.5728 17.7316 10.703 17.8366 10.8451C19.2869 12.8041 20.6548 14.8255 22.1755 16.7273C23.9008 18.8855 27.2941 18.8377 28.9955 16.6543C30.483 14.7471 31.8549 12.7496 33.2906 10.8012C33.3796 10.6804 33.5669 10.5648 33.7116 10.5609C34.4727 10.5369 35.2363 10.5369 35.9973 10.5542C36.842 10.5741 37.449 11.1984 37.4809 12.0484C37.4875 12.2144 37.4822 12.3804 37.4822 12.5464C37.4822 25.4943 37.4822 38.4422 37.4822 51.3901C35.328 51.3901 33.1737 51.3901 31.0195 51.3901C31.0195 48.3062 31.0209 45.2236 31.0182 42.1397C31.0169 41.0148 30.4298 40.4344 29.2983 40.433C26.816 40.4317 24.3337 40.4317 21.8515 40.433C20.6522 40.433 20.0824 40.9988 20.0824 42.1902C20.0811 45.2568 20.0824 48.3234 20.0824 51.3901C17.9309 51.3901 15.7753 51.3901 13.6211 51.3901ZM21.0772 18.0023C21.0679 17.1948 20.3879 16.5241 19.5817 16.5281C18.7755 16.5308 18.1009 17.2055 18.0982 18.013C18.0942 18.8391 18.7941 19.5297 19.6176 19.5124C20.4238 19.4965 21.0865 18.8098 21.0772 18.0023ZM33.0091 18.0143C33.0064 17.2068 32.3317 16.5321 31.5255 16.5281C30.7194 16.5241 30.0394 17.1935 30.0301 18.0023C30.0195 18.8284 30.7154 19.5244 31.5388 19.5137C32.3437 19.5031 33.0117 18.8218 33.0091 18.0143ZM19.607 25.4903C20.4131 25.4797 21.0812 24.797 21.0772 23.9895C21.0732 23.182 20.3985 22.5073 19.5923 22.5047C18.7676 22.502 18.0796 23.2046 18.0982 24.0294C18.1155 24.8355 18.8034 25.5009 19.607 25.4903ZM27.0431 24.0108C27.0511 23.2033 26.387 22.5193 25.5795 22.5047C24.776 22.4901 24.0841 23.1528 24.0628 23.9576C24.0416 24.7837 24.7269 25.489 25.5503 25.489C26.3565 25.4903 27.0338 24.8183 27.0431 24.0108ZM31.5123 25.4903C32.3171 25.4943 32.9971 24.8236 33.0077 24.0161C33.0184 23.2099 32.3556 22.5219 31.5495 22.5047C30.726 22.4874 30.0248 23.1767 30.0288 24.0028C30.0327 24.8103 30.7074 25.4863 31.5123 25.4903ZM21.0772 29.9966C21.0905 29.1905 20.4291 28.5012 19.6229 28.4812C18.8194 28.4613 18.1234 29.1214 18.0982 29.9262C18.0716 30.751 18.753 31.4602 19.5764 31.4669C20.3812 31.4722 21.0639 30.8041 21.0772 29.9966ZM25.5503 31.4669C26.3552 31.4682 27.0338 30.7962 27.0431 29.99C27.0524 29.1825 26.3884 28.4972 25.5809 28.4826C24.7574 28.4666 24.0575 29.1586 24.0641 29.9847C24.0695 30.7895 24.7455 31.4642 25.5503 31.4669ZM33.0091 29.9794C33.013 29.1719 32.3437 28.4905 31.5375 28.4812C30.7327 28.4706 30.046 29.136 30.0288 29.9422C30.0115 30.7683 30.7008 31.4695 31.5242 31.4655C32.3304 31.4629 33.0051 30.7869 33.0091 29.9794ZM21.0772 35.9573C21.0812 35.1498 20.4131 34.4684 19.607 34.4578C18.8021 34.4472 18.1155 35.1112 18.0982 35.9174C18.0809 36.7435 18.7689 37.4448 19.5923 37.4421C20.3972 37.4408 21.0719 36.7648 21.0772 35.9573ZM27.0431 35.9586C27.0484 35.1511 26.3817 34.4698 25.5742 34.4578C24.7694 34.4459 24.0814 35.1099 24.0628 35.9161C24.0442 36.7422 24.7322 37.4448 25.5556 37.4421C26.3618 37.4408 27.0378 36.7661 27.0431 35.9586ZM33.0091 35.9307C32.9984 35.1232 32.3171 34.4538 31.5123 34.4578C30.7061 34.4618 30.0327 35.1378 30.0301 35.9453C30.0274 36.7714 30.7287 37.462 31.5521 37.4434C32.357 37.4248 33.0197 36.7369 33.0091 35.9307Z" fill="#0078BF"/>
    <path d="M1.29126 51.39C0.43063 50.9929 0.182271 50.3089 0.183599 49.3845C0.206177 39.7105 0.19688 30.0351 0.19688 20.3597C0.19688 19.0595 0.736099 18.5189 2.03501 18.5189C4.70188 18.5189 7.36876 18.5189 10.0356 18.5189C10.2149 18.5189 10.3956 18.5189 10.6373 18.5189C10.6373 29.4985 10.6373 40.4449 10.6373 51.39C7.52282 51.39 4.40704 51.39 1.29126 51.39ZM5.39516 27.4824C6.20798 27.4944 6.88798 26.8303 6.89993 26.0109C6.91188 25.1927 6.2518 24.5088 5.43899 24.4968C4.62485 24.4849 3.94618 25.1476 3.9329 25.967C3.92095 26.7838 4.58368 27.4705 5.39516 27.4824ZM6.90126 31.9556C6.89462 31.1361 6.22126 30.4681 5.40712 30.4734C4.5943 30.48 3.92759 31.1587 3.93423 31.9768C3.94087 32.7949 4.61688 33.4656 5.42837 33.459C6.24118 33.4524 6.90657 32.7737 6.90126 31.9556ZM5.40313 39.4356C6.21595 39.4435 6.89329 38.7755 6.90126 37.9574C6.90923 37.1392 6.24649 36.4579 5.43235 36.4499C4.61821 36.442 3.9422 37.1087 3.93423 37.9281C3.92493 38.7449 4.59165 39.4276 5.40313 39.4356ZM5.42571 45.4121C6.23985 45.4068 6.90524 44.7281 6.89993 43.91C6.89462 43.0906 6.22126 42.4212 5.40712 42.4265C4.5943 42.4318 3.92759 43.1105 3.9329 43.9273C3.93954 44.7454 4.61423 45.4174 5.42571 45.4121Z" fill="#0078BF"/>
    <path d="M40.4688 51.39C40.4688 40.4556 40.4688 29.5225 40.4688 18.5429C40.652 18.5336 40.8114 18.5203 40.9708 18.5203C43.7041 18.519 46.4373 18.519 49.1706 18.5203C50.3327 18.5203 50.9091 19.098 50.9091 20.2615C50.9105 29.9687 50.9012 39.6773 50.9237 49.3846C50.9264 50.3103 50.6754 50.9929 49.8161 51.39C46.7003 51.39 43.5845 51.39 40.4688 51.39ZM47.1718 25.9897C47.1718 25.1702 46.5024 24.4968 45.6896 24.4968C44.8755 24.4968 44.2061 25.1702 44.2048 25.9883C44.2048 26.8065 44.8755 27.4825 45.6883 27.4825C46.5011 27.4825 47.1718 26.8078 47.1718 25.9897ZM45.6843 33.459C46.4971 33.4617 47.1691 32.7883 47.1718 31.9702C47.1745 31.1508 46.5064 30.4761 45.6923 30.4734C44.8781 30.4708 44.2061 31.1428 44.2048 31.9609C44.2034 32.779 44.8728 33.4564 45.6843 33.459ZM45.6577 39.4356C46.4705 39.4529 47.1545 38.7928 47.1731 37.9747C47.1904 37.1565 46.5356 36.4686 45.7215 36.4513C44.9087 36.434 44.2234 37.0928 44.2061 37.9109C44.1875 38.7277 44.8449 39.417 45.6577 39.4356ZM45.6923 42.4265C44.8781 42.4252 44.2074 43.0972 44.2048 43.9154C44.2034 44.7335 44.8728 45.4108 45.6843 45.4122C46.4971 45.4135 47.1691 44.7415 47.1718 43.922C47.1745 43.1039 46.5064 42.4279 45.6923 42.4265Z" fill="#0078BF"/>
    <path d="M26.3479 0.390015C26.648 0.469702 26.9508 0.541421 27.2497 0.629077C31.0043 1.73142 32.7202 6.24439 30.554 9.51158C29.364 11.3059 28.0293 13.0045 26.725 14.7205C26.1022 15.5413 24.9958 15.5386 24.3756 14.7205C23.0833 13.0165 21.7645 11.3271 20.5732 9.55408C18.237 6.07572 20.3222 1.25197 24.434 0.490952C24.5443 0.47103 24.6492 0.424546 24.7568 0.390015C25.288 0.390015 25.8179 0.390015 26.3479 0.390015ZM25.5337 7.85939C26.3386 7.87001 27.0239 7.20462 27.0411 6.39712C27.0584 5.59095 26.3997 4.89767 25.5948 4.87509C24.7714 4.85119 24.0648 5.53517 24.0622 6.36126C24.0608 7.16876 24.7275 7.84876 25.5337 7.85939Z" fill="#0078BF"/>
    <path d="M23.0664 51.39C23.0664 48.7564 23.0664 46.124 23.0664 43.4558C24.7213 43.4558 26.3482 43.4558 28.0376 43.4558C28.0376 46.1001 28.0376 48.7444 28.0376 51.39C26.3801 51.39 24.7226 51.39 23.0664 51.39Z" fill="#0078BF"/>
  </g>
</svg>