<svg xmlns="http://www.w3.org/2000/svg" width="9" height="15" viewBox="0 0 9 15" fill="none">
  <g clip-path="url(#clip0_168_1600)">
    <path d="M8.75 2.52075C8.75 2.7395 8.64062 2.84888 8.42188 2.84888H5.22266C5.6237 3.26815 5.89714 3.77856 6.04297 4.38013H8.42188C8.64062 4.38013 8.75 4.4895 8.75 4.70825V5.14575C8.75 5.3645 8.64062 5.47388 8.42188 5.47388H6.125C6.07031 6.47648 5.69206 7.27401 4.99023 7.86646C4.28841 8.4589 3.40885 8.75513 2.35156 8.75513H1.69531L5.96094 13.4583C6.05208 13.5676 6.07031 13.6861 6.01562 13.8137C5.96094 13.9413 5.86068 14.0051 5.71484 14.0051H5.11328C5.02214 14.0051 4.9401 13.9687 4.86719 13.8958L0.0820312 8.61841C0.0273438 8.56372 0 8.4908 0 8.39966V7.9895C0 7.89836 0.031901 7.82088 0.0957031 7.75708C0.159505 7.69328 0.236979 7.66138 0.328125 7.66138H2.29688C3.08073 7.66138 3.70964 7.46541 4.18359 7.07349C4.65755 6.68156 4.92188 6.14836 4.97656 5.47388H0.328125C0.109375 5.47388 0 5.3645 0 5.14575V4.70825C0 4.4895 0.109375 4.38013 0.328125 4.38013H4.86719C4.70312 3.88794 4.39779 3.50968 3.95117 3.24536C3.50456 2.98104 2.96224 2.84888 2.32422 2.84888H0.328125C0.109375 2.84888 0 2.7395 0 2.52075V2.08325C0 1.8645 0.109375 1.75513 0.328125 1.75513H8.42188C8.64062 1.75513 8.75 1.8645 8.75 2.08325V2.52075Z" fill="#0078BF"/>
  </g>
  <defs>
    <clipPath id="clip0_168_1600">
      <rect width="8.75" height="14" fill="white" transform="matrix(1 0 0 -1 0 14.8801)"/>
    </clipPath>
  </defs>
</svg>