<svg width="60" height="60" viewBox="0 0 60 60" fill="none" xmlns="http://www.w3.org/2000/svg">
<g id="#87d239ff">
<path id="Vector" d="M11.5194 0.137002C12.7811 0.0591055 14.0439 -0.00891738 15.3078 0.000956817C25.1787 0.00205395 35.0507 0.000957889 44.9216 0.00205502C46.5761 0.0272891 48.2349 0.0766591 49.8773 0.287309C51.5252 0.564884 53.1457 1.11894 54.5467 2.04492C56.8639 3.53044 58.6127 5.8794 59.3533 8.53227C59.7965 9.9344 59.8722 11.4133 59.9403 12.8725C60.0204 14.1891 59.9951 15.5078 59.9995 16.8255C59.9995 26.0776 59.9984 35.3287 59.9995 44.5808C59.9896 46.2342 59.9348 47.8886 59.757 49.5332C59.4729 51.7462 58.604 53.8987 57.1678 55.6168C55.2961 57.9208 52.4918 59.3888 49.557 59.7519C47.8389 59.9417 46.1076 59.9889 44.3807 59.9977C34.8719 59.9988 25.363 59.9802 15.8541 59.9867C14.3566 60.0021 12.8579 59.945 11.3636 59.8375C9.22855 59.6938 7.09902 59.0597 5.31947 57.8528C4.17296 57.0892 3.1636 56.1204 2.36598 54.997C1.04613 53.1856 0.327508 50.976 0.167326 48.751C-0.0586834 45.9072 0.00933968 43.0525 0.0104368 40.2032C0.0159225 33.435 0.0115327 26.6668 0.0126299 19.8997C0.0367668 16.7937 -0.0861124 13.6778 0.238639 10.5828C0.572168 7.57118 2.07305 4.68352 4.44724 2.78219C6.42647 1.14088 8.96963 0.278532 11.5194 0.137002ZM18.8735 10.5126C19.8192 11.9049 20.766 13.2949 21.7183 14.6817C20.2141 16.2912 19.1752 18.3231 18.7725 20.491C26.2605 20.4987 33.7484 20.502 41.2363 20.4888C40.8348 18.3209 39.7936 16.2923 38.2916 14.6806C39.2417 13.2938 40.1897 11.906 41.1332 10.5159C41.2561 10.3557 41.2802 10.122 41.1606 9.95415C40.9906 9.66122 40.5232 9.6678 40.3564 9.96183C39.425 11.3047 38.5121 12.6619 37.5884 14.0103C35.3656 12.0244 32.3495 10.9646 29.3719 11.1489C26.8178 11.2729 24.3306 12.3108 22.4227 14.0092C21.511 12.6849 20.6124 11.3519 19.7029 10.0255C19.5888 9.84115 19.3814 9.68097 19.1532 9.74789C18.8153 9.79726 18.6518 10.2548 18.8735 10.5126ZM18.609 21.8449C18.6068 27.3766 18.6112 32.9095 18.6068 38.4412C18.5838 39.3244 19.0369 40.1824 19.7413 40.7046C20.2909 41.1303 20.9964 41.2916 21.6821 41.2674C21.6799 43.4376 21.6799 45.6088 21.6821 47.7789C21.6558 48.7609 22.3042 49.7033 23.2104 50.0665C23.9258 50.3726 24.787 50.3012 25.4442 49.8843C26.1705 49.4466 26.6269 48.6149 26.628 47.7702C26.6324 45.5989 26.6313 43.4277 26.628 41.2576C28.8365 41.262 31.0451 41.262 33.2536 41.2576C33.2536 43.4299 33.2525 45.6011 33.2536 47.7723C33.2415 48.604 33.6891 49.4202 34.3935 49.8602C35.088 50.3188 36.0195 50.3824 36.7688 50.0226C37.6301 49.6309 38.2148 48.7115 38.1995 47.7647C38.2017 45.5967 38.2017 43.4277 38.1995 41.2598C39.2681 41.3662 40.3828 40.8889 40.9599 39.9673C41.3076 39.4583 41.4327 38.8285 41.4053 38.2196C41.4009 32.7614 41.4064 27.3031 41.4031 21.8449C33.8054 21.8471 26.2078 21.8482 18.609 21.8449ZM14.0351 22.9289C13.21 23.1011 12.5046 23.7276 12.2303 24.5241C12.0559 24.975 12.0932 25.4654 12.0932 25.9394C12.0943 29.4502 12.091 32.961 12.0943 36.4719C12.0921 37.7149 13.1782 38.8351 14.4213 38.8702C15.4866 38.9591 16.5311 38.247 16.8854 37.2475C17.0665 36.7878 17.0336 36.2865 17.0347 35.8037C17.0336 32.328 17.0347 28.8534 17.0336 25.3788C17.0401 24.9015 16.9052 24.4253 16.6496 24.0238C16.1153 23.1614 15.0258 22.7007 14.0351 22.9289ZM44.8656 22.942C44.0252 23.1395 43.3242 23.811 43.0795 24.6371C42.9544 25.0189 42.9775 25.4248 42.9775 25.8209C42.9808 29.3723 42.9742 32.9248 42.9797 36.4763C42.9841 37.7336 44.0998 38.8658 45.3605 38.8735C46.4148 38.9349 47.4406 38.2229 47.7796 37.2289C47.9541 36.778 47.919 36.2865 47.919 35.8125C47.9179 32.3028 47.9212 28.7919 47.9179 25.2822C47.9113 24.5131 47.5021 23.7693 46.8767 23.3282C46.304 22.9135 45.5503 22.7785 44.8656 22.942Z" fill="url(#paint0_linear_9_16)"/>
<path id="Vector_2" d="M24.7738 14.5885C25.4936 14.3438 26.3383 14.866 26.4228 15.6241C26.5611 16.3603 25.9269 17.1075 25.1798 17.0976C24.4963 17.1305 23.8621 16.5249 23.8753 15.8381C23.8489 15.2796 24.2395 14.7431 24.7738 14.5885Z" fill="url(#paint1_linear_9_16)"/>
<path id="Vector_3" d="M34.6392 14.5501C35.3589 14.4053 36.1093 14.9889 36.1313 15.724C36.2037 16.4108 35.6244 17.068 34.9376 17.0954C34.2706 17.158 33.6287 16.6105 33.5783 15.9434C33.4949 15.2928 33.9908 14.6422 34.6392 14.5501Z" fill="url(#paint2_linear_9_16)"/>
</g>
<defs>
<linearGradient id="paint0_linear_9_16" x1="30" y1="0" x2="30" y2="59.9977" gradientUnits="userSpaceOnUse">
<stop stop-color="#030126"/>
<stop offset="1" stop-color="#050D3C"/>
</linearGradient>
<linearGradient id="paint1_linear_9_16" x1="25.158" y1="14.5276" x2="25.158" y2="17.0989" gradientUnits="userSpaceOnUse">
<stop stop-color="#030126"/>
<stop offset="1" stop-color="#050D3C"/>
</linearGradient>
<linearGradient id="paint2_linear_9_16" x1="34.8533" y1="14.5279" x2="34.8533" y2="17.1003" gradientUnits="userSpaceOnUse">
<stop stop-color="#030126"/>
<stop offset="1" stop-color="#050D3C"/>
</linearGradient>
</defs>
</svg>
