<svg width="60" height="60" viewBox="0 0 60 60" fill="none" xmlns="http://www.w3.org/2000/svg">
<g id="#fc744dff">
<path id="Vector" d="M3.9811 3.95003C6.45909 1.42305 9.97993 -0.017337 13.5124 0.000157531C24.642 0.0040452 35.7716 0.000159429 46.9012 0.00210326C47.6314 0.0195978 48.3499 0.171216 49.0782 0.225643C52.4709 0.907929 55.6014 2.9023 57.5628 5.76946C59.1222 7.9485 59.9476 10.6096 60 13.2804C59.9961 24.3603 59.9981 35.4382 59.9961 46.5181C60.0117 47.6435 59.8213 48.7593 59.5689 49.8537C58.5221 54.0951 55.2382 57.6951 51.1309 59.1588C49.2996 59.8703 47.311 60.0336 45.3632 59.9947C34.7404 59.9966 24.1177 59.9927 13.4949 59.9966C10.8033 59.9461 8.10784 59.1802 5.89396 57.6232C3.08972 55.7182 1.0312 52.7189 0.341788 49.3911C-0.099046 47.6261 0.0174778 45.7969 0.00582576 43.995C0.00194176 33.8209 0.005826 23.645 0 13.469C0.025246 9.93899 1.44485 6.42065 3.9811 3.95003ZM30.2466 11.7604C29.13 13.4243 28.7105 15.4634 28.9494 17.4461C31.0506 17.3178 33.2276 16.6569 34.7288 15.1115C36.5193 13.1191 37.3796 10.3841 37.2786 7.72495L37.0106 7.65303C34.2918 7.90379 31.7692 9.50745 30.2466 11.7604ZM15.5282 20.5543C13.5532 23.0288 12.6735 26.2711 12.8521 29.4104C13.0036 32.2309 13.7047 35.0106 14.833 37.5978C15.8953 39.9129 17.1653 42.1658 18.884 44.063C20.09 45.3537 21.6067 46.5492 23.4224 46.7358C25.6557 46.8718 27.4424 45.206 29.6135 44.9747C32.0022 44.5062 34.0665 46.0671 36.2668 46.6638C37.063 46.9204 37.8981 46.66 38.6225 46.314C40.6422 45.3634 42.2463 43.6956 43.4114 41.8159C44.4873 40.1345 45.4661 38.3851 46.3031 36.5734C46.3516 36.5345 46.4468 36.4568 46.4953 36.4179C44.3844 35.3682 42.4735 33.7218 41.5044 31.533C40.7897 29.9702 40.6033 28.176 40.9626 26.4966C41.4578 24.1329 43.0308 22.0257 45.1495 20.8731C43.8115 19.0284 41.7918 17.6113 39.5488 17.1409C37.6515 16.8824 35.6862 17.0107 33.8665 17.6346C32.6411 17.9631 31.5245 18.7329 30.2156 18.6862C29.1047 18.7543 28.1182 18.1828 27.0967 17.8426C25.3742 17.205 23.5098 16.7482 21.6688 17.0476C19.2491 17.3003 17.0352 18.6707 15.5282 20.5543Z" fill="url(#paint0_linear_9_20)"/>
</g>
<defs>
<linearGradient id="paint0_linear_9_20" x1="30" y1="0" x2="30" y2="60" gradientUnits="userSpaceOnUse">
<stop stop-color="#030126"/>
<stop offset="1" stop-color="#050D3C"/>
</linearGradient>
</defs>
</svg>
