<svg width="80" height="81" viewBox="0 0 80 81" fill="none" xmlns="http://www.w3.org/2000/svg">
<g id="SVG" opacity="0.1">
<path id="Vector" d="M72.5 5.85986H52.5C48.3594 5.85986 45 9.21924 45 13.3599V33.3599C45 37.5005 48.3594 40.8599 52.5 40.8599H65V50.8599C65 56.3755 60.5156 60.8599 55 60.8599H53.75C51.6719 60.8599 50 62.5317 50 64.6099V72.1099C50 74.188 51.6719 75.8599 53.75 75.8599H55C68.8125 75.8599 80 64.6724 80 50.8599V13.3599C80 9.21924 76.6406 5.85986 72.5 5.85986ZM27.5 5.85986H7.5C3.35938 5.85986 0 9.21924 0 13.3599V33.3599C0 37.5005 3.35938 40.8599 7.5 40.8599H20V50.8599C20 56.3755 15.5156 60.8599 10 60.8599H8.75C6.67188 60.8599 5 62.5317 5 64.6099V72.1099C5 74.188 6.67188 75.8599 8.75 75.8599H10C23.8125 75.8599 35 64.6724 35 50.8599V13.3599C35 9.21924 31.6406 5.85986 27.5 5.85986Z" fill="black"/>
</g>
</svg>
