<svg width="637" height="367" viewBox="0 0 637 367" fill="none" xmlns="http://www.w3.org/2000/svg">
<rect x="418.486" y="186.428" width="212.502" height="3.91108" fill="#F3BE3E"/>
<rect x="630.989" y="146.014" width="44.3256" height="3.91108" transform="rotate(90 630.989 146.014)" fill="#F3BE3E"/>
<circle cx="629.033" cy="142.754" r="7.17032" fill="#F3BE3E"/>
<rect x="6.51855" y="169.479" width="212.502" height="3.91108" fill="#F5634A"/>
<rect x="9.12598" y="129.066" width="44.3256" height="3.91108" transform="rotate(90 9.12598 129.066)" fill="#F5634A"/>
<path d="M50.844 186.428C60.9242 186.428 69.0957 178.257 69.0957 168.177C69.0957 158.096 60.9242 149.925 50.844 149.925C40.7639 149.925 32.5923 158.096 32.5923 168.177C32.5923 178.257 40.7639 186.428 50.844 186.428Z" fill="#F5634A"/>
<circle cx="7.17032" cy="125.806" r="7.17032" fill="#F5634A"/>
<path d="M49.1324 170.213H46.4435C44.4146 170.213 42.7769 171.851 42.7769 173.88C42.7769 175.908 44.4146 177.546 46.4435 177.546C48.4724 177.546 50.1101 175.908 50.1101 173.88V171.191C50.1101 170.653 49.6701 170.213 49.1324 170.213Z" fill="white"/>
<path d="M46.4442 177.955C44.1953 177.955 42.3701 176.13 42.3701 173.881C42.3701 171.632 44.1953 169.807 46.4442 169.807H49.133C49.899 169.807 50.5182 170.426 50.5182 171.192V173.881C50.5182 176.13 48.693 177.955 46.4442 177.955ZM46.4442 170.621C44.6434 170.621 43.1849 172.08 43.1849 173.881C43.1849 175.681 44.6434 177.14 46.4442 177.14C48.2449 177.14 49.7034 175.681 49.7034 173.881V171.192C49.7034 170.874 49.4508 170.621 49.133 170.621H46.4442ZM55.2441 170.214H52.5552C52.0175 170.214 51.5775 170.654 51.5775 171.192V173.881C51.5775 175.91 53.2152 177.547 55.2441 177.547C57.273 177.547 58.9107 175.91 58.9107 173.881C58.9107 171.852 57.273 170.214 55.2441 170.214Z" fill="white"/>
<path d="M55.2435 177.955C52.9946 177.955 51.1694 176.13 51.1694 173.881V171.192C51.1694 170.426 51.7887 169.807 52.5546 169.807H55.2435C57.4924 169.807 59.3175 171.632 59.3175 173.881C59.3175 176.13 57.4924 177.955 55.2435 177.955ZM52.5546 170.621C52.2368 170.621 51.9842 170.874 51.9842 171.192V173.881C51.9842 175.681 53.4428 177.14 55.2435 177.14C57.0442 177.14 58.5027 175.681 58.5027 173.881C58.5027 172.08 57.0442 170.621 55.2435 170.621H52.5546Z" fill="white"/>
<path d="M52.5554 168.747H55.2443C57.2732 168.747 58.9109 167.11 58.9109 165.081C58.9109 163.052 57.2732 161.414 55.2443 161.414C53.2154 161.414 51.5776 163.052 51.5776 165.081V167.77C51.5776 168.307 52.0176 168.747 52.5554 168.747Z" fill="white"/>
<path d="M55.2435 169.154H52.5546C51.7887 169.154 51.1694 168.535 51.1694 167.769V165.08C51.1694 162.831 52.9946 161.006 55.2435 161.006C57.4924 161.006 59.3175 162.831 59.3175 165.08C59.3175 167.329 57.4924 169.154 55.2435 169.154ZM55.2435 161.821C53.4428 161.821 51.9842 163.279 51.9842 165.08V167.769C51.9842 168.087 52.2368 168.339 52.5546 168.339H55.2435C57.0442 168.339 58.5027 166.881 58.5027 165.08C58.5027 163.279 57.0442 161.821 55.2435 161.821Z" fill="white"/>
<path d="M46.4435 161.414C44.4146 161.414 42.7769 163.052 42.7769 165.081C42.7769 167.11 44.4146 168.747 46.4435 168.747H49.1324C49.6701 168.747 50.1101 168.307 50.1101 167.77V165.081C50.1101 163.052 48.4724 161.414 46.4435 161.414Z" fill="white"/>
<path d="M49.133 169.154H46.4442C44.1953 169.154 42.3701 167.329 42.3701 165.08C42.3701 162.831 44.1953 161.006 46.4442 161.006C48.693 161.006 50.5182 162.831 50.5182 165.08V167.769C50.5182 168.535 49.899 169.154 49.133 169.154ZM46.4442 161.821C44.6434 161.821 43.1849 163.279 43.1849 165.08C43.1849 166.881 44.6434 168.339 46.4442 168.339H49.133C49.4508 168.339 49.7034 168.087 49.7034 167.769V165.08C49.7034 163.279 48.2449 161.821 46.4442 161.821Z" fill="white"/>
<rect x="5" y="269" width="142" height="10" fill="#3A519F"/>
<path d="M597.84 200.702H540.032C538.734 200.702 537.681 199.649 537.681 198.351V140.543C537.681 139.246 538.734 138.192 540.032 138.192H597.837C599.134 138.192 600.188 139.246 600.188 140.543V198.348C600.191 199.649 599.137 200.702 597.84 200.702Z" fill="#856CF2"/>
<path d="M575.041 149.174V158.888C575.041 159.493 574.55 159.984 573.945 159.984H570.624V165.491H588.428V177.7H591.728C592.332 177.7 592.824 178.191 592.824 178.796V188.504C592.824 189.108 592.332 189.599 591.728 189.599H582.194C581.59 189.599 581.098 189.108 581.098 188.504V178.847C581.098 178.243 581.59 177.752 582.194 177.752H585.345V168.611H570.627V177.687H573.808C574.412 177.687 574.904 178.179 574.904 178.783V188.497C574.904 189.102 574.412 189.593 573.808 189.593H564.286C563.682 189.593 563.19 189.102 563.19 188.497V178.823C563.19 178.219 563.682 177.727 564.286 177.727H567.504V168.608H552.777V177.715H555.915C556.52 177.715 557.011 178.206 557.011 178.811V188.601C557.011 189.206 556.52 189.697 555.915 189.697H546.143C545.539 189.697 545.047 189.206 545.047 188.601V178.823C545.047 178.219 545.539 177.727 546.143 177.727H549.691V165.47H567.501V160.018H564.143C563.538 160.018 563.047 159.526 563.047 158.922V149.174C563.047 148.57 563.538 148.078 564.143 148.078H573.945C574.55 148.078 575.041 148.57 575.041 149.174Z" fill="white"/>
<path d="M152.33 189.777V154.102C155.774 153.168 158.308 150.029 158.308 146.293C158.308 141.82 154.681 138.19 150.206 138.19C145.73 138.19 142.104 141.817 142.104 146.293C142.104 150.032 144.64 153.171 148.084 154.102V194.02H240.877V189.777H152.33Z" fill="#6252DB"/>
<path d="M282.368 234.782H341.815V277.107H282.368V234.782Z" fill="#6179EF"/>
<path d="M423.458 246.169H200.722C199.083 246.169 197.757 244.842 197.757 243.204V107.965C197.757 106.326 199.083 105 200.722 105H423.458C425.096 105 426.423 106.326 426.423 107.965V243.201C426.423 244.842 425.096 246.169 423.458 246.169Z" fill="url(#paint0_linear_1364_557)"/>
<path d="M416.483 227.54H207.695C207.514 227.54 207.37 227.395 207.37 227.215V113.675C207.37 113.494 207.514 113.35 207.695 113.35H416.487C416.667 113.35 416.812 113.494 416.812 113.675V227.215C416.808 227.395 416.664 227.54 416.483 227.54Z" fill="white"/>
<path d="M373.631 278.765H250.138C249.444 278.765 248.885 278.226 248.885 277.559V269.97C248.885 269.303 249.444 268.765 250.138 268.765H373.631C374.325 268.765 374.885 269.303 374.885 269.97V277.559C374.885 278.226 374.322 278.765 373.631 278.765Z" fill="url(#paint1_linear_1364_557)"/>
<path d="M269.313 136H253.756V227.511H269.313V136Z" fill="#D0E2FF"/>
<path d="M293.004 155.779H277.447V227.511H293.004V155.779Z" fill="#53C8CE"/>
<path d="M316.697 187.51H301.14V227.511H316.697V187.51Z" fill="#D0E2FF"/>
<path d="M340.394 144.185H324.837V227.511H340.394V144.185Z" fill="#5B9BFD"/>
<path d="M364.085 173.659H348.528V227.511H364.085V173.659Z" fill="#D0E2FF"/>
<path d="M360.932 212.282C363.194 223.131 373.86 230.117 384.708 227.855C389.047 226.951 392.765 224.699 395.523 221.632L403.772 227.453L406.268 223.916L398.057 218.12C400.402 214.009 401.319 209.063 400.28 204.077C398.018 193.229 387.352 186.243 376.503 188.505C365.656 190.768 358.67 201.434 360.932 212.282ZM396.042 204.962C397.816 213.473 392.335 221.841 383.824 223.616C375.313 225.39 366.945 219.909 365.17 211.398C363.396 202.887 368.876 194.519 377.388 192.744C385.9 190.969 394.268 196.451 396.042 204.962Z" fill="#0B1066" fill-opacity="0.19"/>
<path d="M416.772 239.771L397.601 225.755L402.428 219.155L421.598 233.17L416.772 239.771Z" fill="#0B1066" fill-opacity="0.19"/>
<path d="M362.446 210.829C364.623 221.273 374.891 227.999 385.336 225.822C389.513 224.951 393.092 222.783 395.748 219.83L403.69 225.435L406.093 222.03L398.187 216.451C400.444 212.493 401.328 207.732 400.327 202.931C398.15 192.487 387.881 185.761 377.436 187.939C366.993 190.116 360.268 200.385 362.446 210.829ZM396.247 203.781C397.956 211.976 392.679 220.032 384.485 221.741C376.29 223.449 368.234 218.173 366.525 209.978C364.817 201.784 370.094 193.727 378.288 192.019C386.482 190.31 394.539 195.587 396.247 203.781Z" fill="#D0E2FF"/>
<path d="M416.205 237.294L397.748 223.801L402.395 217.445L420.851 230.938L416.205 237.294Z" fill="#F5634A"/>
<rect x="168.756" y="269" width="55" height="10" fill="#3A519F"/>
<rect x="396" y="269" width="77" height="10" fill="#11186F"/>
<path opacity="0.19" d="M262.852 231.719H165.76C162.579 231.719 160.002 229.143 160.002 225.962V206.76C160.002 203.579 162.579 201.002 165.76 201.002H262.852C266.033 201.002 268.609 203.579 268.609 206.76V225.962C268.609 229.143 266.033 231.719 262.852 231.719Z" fill="#0B1066"/>
<path d="M259.705 226.995H164.436C161.987 226.995 160 225.01 160 222.559V205.436C160 202.987 161.984 201 164.436 201H259.705C262.153 201 264.141 202.984 264.141 205.436V222.559C264.141 225.01 262.153 226.995 259.705 226.995Z" fill="#856CF2"/>
<path d="M176.504 220.965C180.351 220.965 183.47 217.846 183.47 213.999C183.47 210.151 180.351 207.032 176.504 207.032C172.656 207.032 169.537 210.151 169.537 213.999C169.537 217.846 172.656 220.965 176.504 220.965Z" fill="white"/>
<path d="M196.435 220.965C200.283 220.965 203.402 217.846 203.402 213.999C203.402 210.151 200.283 207.032 196.435 207.032C192.588 207.032 189.469 210.151 189.469 213.999C189.469 217.846 192.588 220.965 196.435 220.965Z" fill="white"/>
<path d="M216.364 220.965C220.212 220.965 223.331 217.846 223.331 213.999C223.331 210.151 220.212 207.032 216.364 207.032C212.516 207.032 209.397 210.151 209.397 213.999C209.397 217.846 212.516 220.965 216.364 220.965Z" fill="white"/>
<path d="M250.88 220.965C254.727 220.965 257.846 217.846 257.846 213.999C257.846 210.151 254.727 207.032 250.88 207.032C247.032 207.032 243.913 210.151 243.913 213.999C243.913 217.846 247.032 220.965 250.88 220.965Z" fill="#F9BC00"/>
<defs>
<linearGradient id="paint0_linear_1364_557" x1="197.757" y1="175.585" x2="426.423" y2="175.585" gradientUnits="userSpaceOnUse">
<stop stop-color="#405AB1"/>
<stop offset="1" stop-color="#0B1066"/>
</linearGradient>
<linearGradient id="paint1_linear_1364_557" x1="248.884" y1="273.765" x2="374.884" y2="273.765" gradientUnits="userSpaceOnUse">
<stop stop-color="#405AB1"/>
<stop offset="1" stop-color="#0B1066"/>
</linearGradient>
</defs>
</svg>
